# xmcd CD database file
#
# Track frame offsets:
#	182
#	26237
#	43507
#	70422
#	95790
#	118437
#	135432
#	162835
#	185037
#	219682
#	251297
#
# Disc length: 3776 seconds
#
# Revision: 0
# Processed by: cddbd v1.5.2PL0 Copyright (c) Steve Scherf et al.
# Submitted via: CDex 1.51
#
DISCID=a70ebe0b
DTITLE=Galliano - Live In Rome
DYEAR=1900
DGENRE=Jazz
TTITLE0=Blood Lines
TTITLE1=Heart Boots
TTITLE2=Rise And Fall
TTITLE3=Power And Glory
TTITLE4=What Colour Our Flag
TTITLE5=Cool Wind
TTITLE6=Twy Ford Down
TTITLE7=Believe
TTITLE8=Long Time Gone
TTITLE9=Jazz
TTITLE10=Just A Rich
EXTD=
EXTT0=
EXTT1=
EXTT2=
EXTT3=
EXTT4=
EXTT5=
EXTT6=
EXTT7=
EXTT8=
EXTT9=
EXTT10=
PLAYORDER=
